<svg width="250" height="140" viewBox="0 0 250 140" fill="none" xmlns="http://www.w3.org/2000/svg">
<rect width="250" height="140" fill="#F2F6F8"/>
<g filter="url(#filter0_d_215_49)">
<rect x="69" y="50" width="111" height="40" rx="4" fill="white"/>
<rect x="69.5" y="50.5" width="110" height="39" rx="3.5" stroke="#D2D7DC"/>
</g>
<path d="M103.119 75V64.8182H106.847C107.57 64.8182 108.168 64.9375 108.642 65.1761C109.116 65.4115 109.471 65.7313 109.706 66.1357C109.941 66.5367 110.059 66.9891 110.059 67.4929C110.059 67.9171 109.981 68.2751 109.825 68.5668C109.67 68.8551 109.461 69.0871 109.199 69.2628C108.94 69.4351 108.655 69.5611 108.344 69.6406V69.7401C108.682 69.7566 109.012 69.866 109.333 70.0682C109.658 70.267 109.926 70.5504 110.138 70.9183C110.351 71.2862 110.457 71.7337 110.457 72.2607C110.457 72.781 110.334 73.2483 110.089 73.6626C109.847 74.0736 109.472 74.4001 108.965 74.642C108.458 74.8807 107.81 75 107.021 75H103.119ZM104.655 73.6825H106.872C107.608 73.6825 108.135 73.54 108.453 73.255C108.771 72.9699 108.93 72.6136 108.93 72.1861C108.93 71.8646 108.849 71.5696 108.687 71.3011C108.524 71.0327 108.292 70.8189 107.991 70.6598C107.692 70.5007 107.338 70.4212 106.927 70.4212H104.655V73.6825ZM104.655 69.223H106.713C107.058 69.223 107.368 69.1567 107.643 69.0241C107.921 68.8916 108.142 68.706 108.304 68.4673C108.47 68.2254 108.553 67.9403 108.553 67.6122C108.553 67.1913 108.405 66.8383 108.11 66.5533C107.815 66.2682 107.363 66.1257 106.753 66.1257H104.655V69.223ZM116.997 71.8331V67.3636H118.488V75H117.027V73.6776H116.947C116.771 74.0852 116.49 74.425 116.102 74.6967C115.717 74.9652 115.239 75.0994 114.665 75.0994C114.175 75.0994 113.74 74.9917 113.363 74.7763C112.988 74.5575 112.693 74.2344 112.478 73.8068C112.266 73.3793 112.159 72.8506 112.159 72.2209V67.3636H113.646V72.0419C113.646 72.5623 113.79 72.9766 114.078 73.2848C114.367 73.593 114.741 73.7472 115.202 73.7472C115.48 73.7472 115.757 73.6776 116.032 73.5384C116.311 73.3991 116.541 73.1887 116.723 72.907C116.909 72.6252 117 72.2673 116.997 71.8331ZM124.05 67.3636V68.5568H119.879V67.3636H124.05ZM120.998 65.5341H122.484V72.7578C122.484 73.0462 122.527 73.2633 122.613 73.4091C122.7 73.5516 122.811 73.6494 122.947 73.7024C123.086 73.7521 123.237 73.777 123.399 73.777C123.518 73.777 123.623 73.7687 123.712 73.7521C123.802 73.7356 123.871 73.7223 123.921 73.7124L124.189 74.9403C124.103 74.9735 123.981 75.0066 123.822 75.0398C123.662 75.0762 123.464 75.0961 123.225 75.0994C122.834 75.1061 122.469 75.0365 122.131 74.8906C121.793 74.7448 121.52 74.5194 121.311 74.2145C121.102 73.9096 120.998 73.5268 120.998 73.0661V65.5341ZM129.259 67.3636V68.5568H125.088V67.3636H129.259ZM126.207 65.5341H127.693V72.7578C127.693 73.0462 127.736 73.2633 127.822 73.4091C127.909 73.5516 128.02 73.6494 128.156 73.7024C128.295 73.7521 128.446 73.777 128.608 73.777C128.727 73.777 128.832 73.7687 128.921 73.7521C129.011 73.7356 129.08 73.7223 129.13 73.7124L129.398 74.9403C129.312 74.9735 129.19 75.0066 129.031 75.0398C128.871 75.0762 128.673 75.0961 128.434 75.0994C128.043 75.1061 127.678 75.0365 127.34 74.8906C127.002 74.7448 126.729 74.5194 126.52 74.2145C126.311 73.9096 126.207 73.5268 126.207 73.0661V65.5341ZM134.038 75.1541C133.322 75.1541 132.698 74.9901 132.164 74.6619C131.63 74.3338 131.216 73.8748 130.921 73.2848C130.626 72.6948 130.479 72.0054 130.479 71.2166C130.479 70.4245 130.626 69.7318 130.921 69.1385C131.216 68.5452 131.63 68.0845 132.164 67.7564C132.698 67.4283 133.322 67.2642 134.038 67.2642C134.754 67.2642 135.379 67.4283 135.912 67.7564C136.446 68.0845 136.86 68.5452 137.155 69.1385C137.45 69.7318 137.598 70.4245 137.598 71.2166C137.598 72.0054 137.45 72.6948 137.155 73.2848C136.86 73.8748 136.446 74.3338 135.912 74.6619C135.379 74.9901 134.754 75.1541 134.038 75.1541ZM134.043 73.9062C134.507 73.9062 134.892 73.7836 135.197 73.5384C135.501 73.2931 135.727 72.9666 135.873 72.5589C136.022 72.1513 136.096 71.7022 136.096 71.2116C136.096 70.7244 136.022 70.277 135.873 69.8693C135.727 69.4583 135.501 69.1286 135.197 68.88C134.892 68.6314 134.507 68.5071 134.043 68.5071C133.576 68.5071 133.188 68.6314 132.88 68.88C132.575 69.1286 132.348 69.4583 132.199 69.8693C132.053 70.277 131.98 70.7244 131.98 71.2116C131.98 71.7022 132.053 72.1513 132.199 72.5589C132.348 72.9666 132.575 73.2931 132.88 73.5384C133.188 73.7836 133.576 73.9062 134.043 73.9062ZM140.744 70.4659V75H139.257V67.3636H140.684V68.6065H140.778C140.954 68.2022 141.229 67.8774 141.604 67.6321C141.982 67.3868 142.457 67.2642 143.031 67.2642C143.551 67.2642 144.007 67.3736 144.398 67.5923C144.789 67.8078 145.092 68.1293 145.308 68.5568C145.523 68.9844 145.631 69.513 145.631 70.1428V75H144.144V70.3217C144.144 69.7682 144 69.3357 143.712 69.0241C143.423 68.7093 143.027 68.5518 142.523 68.5518C142.179 68.5518 141.872 68.6264 141.604 68.7756C141.339 68.9247 141.128 69.1435 140.972 69.4318C140.82 69.7169 140.744 70.0616 140.744 70.4659Z" fill="black"/>
<defs>
<filter id="filter0_d_215_49" x="69" y="50" width="111" height="41" filterUnits="userSpaceOnUse" color-interpolation-filters="sRGB">
<feFlood flood-opacity="0" result="BackgroundImageFix"/>
<feColorMatrix in="SourceAlpha" type="matrix" values="0 0 0 0 0 0 0 0 0 0 0 0 0 0 0 0 0 0 127 0" result="hardAlpha"/>
<feOffset dy="1"/>
<feComposite in2="hardAlpha" operator="out"/>
<feColorMatrix type="matrix" values="0 0 0 0 0 0 0 0 0 0 0 0 0 0 0 0 0 0 0.05 0"/>
<feBlend mode="normal" in2="BackgroundImageFix" result="effect1_dropShadow_215_49"/>
<feBlend mode="normal" in="SourceGraphic" in2="effect1_dropShadow_215_49" result="shape"/>
</filter>
</defs>
</svg>
