<svg width="250" height="140" viewBox="0 0 250 140" fill="none" xmlns="http://www.w3.org/2000/svg">
<rect width="250" height="140" fill="#F2F6F8"/>
<g filter="url(#filter0_d_216_54)">
<rect x="26" y="16" width="197" height="107" rx="4" fill="white"/>
<rect x="26.5" y="16.5" width="196" height="106" rx="3.5" stroke="#D2D7DC"/>
</g>
<path d="M42.1555 28.5831H41.1584C41.12 28.37 41.0487 28.1825 40.9442 28.0206C40.8398 27.8587 40.712 27.7212 40.5607 27.6083C40.4094 27.4954 40.2401 27.4102 40.0526 27.3526C39.8672 27.2951 39.6701 27.2663 39.4613 27.2663C39.0842 27.2663 38.7464 27.3612 38.4482 27.5508C38.152 27.7404 37.9176 28.0185 37.745 28.3849C37.5746 28.7514 37.4893 29.1989 37.4893 29.7273C37.4893 30.2599 37.5746 30.7095 37.745 31.076C37.9176 31.4425 38.1531 31.7195 38.4513 31.907C38.7496 32.0945 39.0852 32.1882 39.4581 32.1882C39.6648 32.1882 39.8608 32.1605 40.0462 32.1051C40.2337 32.0476 40.4031 31.9634 40.5543 31.8526C40.7056 31.7418 40.8335 31.6065 40.9379 31.4467C41.0444 31.2848 41.1179 31.0994 41.1584 30.8906L42.1555 30.8938C42.1023 31.2156 41.9989 31.5117 41.8455 31.7823C41.6942 32.0508 41.4993 32.283 41.2607 32.479C41.0241 32.6729 40.7536 32.8232 40.4489 32.9297C40.1442 33.0362 39.8118 33.0895 39.4517 33.0895C38.8849 33.0895 38.38 32.9553 37.9368 32.6868C37.4936 32.4162 37.1442 32.0295 36.8885 31.5266C36.6349 31.0238 36.5082 30.424 36.5082 29.7273C36.5082 29.0284 36.636 28.4286 36.8917 27.9279C37.1474 27.4251 37.4968 27.0394 37.94 26.771C38.3832 26.5004 38.8871 26.3651 39.4517 26.3651C39.799 26.3651 40.1229 26.4151 40.4233 26.5153C40.7259 26.6133 40.9975 26.7582 41.2383 26.9499C41.479 27.1396 41.6783 27.3718 41.8359 27.6467C41.9936 27.9194 42.1001 28.2315 42.1555 28.5831ZM44.6892 33.1087C44.3781 33.1087 44.0969 33.0511 43.8454 32.9361C43.594 32.8189 43.3948 32.6495 43.2478 32.4279C43.1029 32.2063 43.0305 31.9347 43.0305 31.6129C43.0305 31.3359 43.0837 31.108 43.1903 30.929C43.2968 30.75 43.4406 30.6083 43.6217 30.5039C43.8028 30.3995 44.0052 30.3207 44.229 30.2674C44.4527 30.2141 44.6807 30.1737 44.9129 30.146C45.2069 30.1119 45.4456 30.0842 45.6288 30.0629C45.8121 30.0394 45.9452 30.0021 46.0283 29.951C46.1114 29.8999 46.153 29.8168 46.153 29.7017V29.6793C46.153 29.4002 46.0741 29.1839 45.9165 29.0305C45.7609 28.8771 45.5287 28.8004 45.2197 28.8004C44.898 28.8004 44.6444 28.8718 44.4591 29.0146C44.2758 29.1552 44.1491 29.3118 44.0787 29.4844L43.1807 29.2798C43.2872 28.9815 43.4427 28.7408 43.6473 28.5575C43.854 28.3722 44.0915 28.2379 44.36 28.1548C44.6285 28.0696 44.9108 28.027 45.2069 28.027C45.403 28.027 45.6107 28.0504 45.8302 28.0973C46.0518 28.142 46.2584 28.2251 46.4502 28.3466C46.6441 28.468 46.8028 28.6417 46.9264 28.8675C47.05 29.0913 47.1118 29.3821 47.1118 29.7401V33H46.1785V32.3288H46.1402C46.0784 32.4524 45.9857 32.5739 45.8621 32.6932C45.7385 32.8125 45.5798 32.9116 45.3859 32.9904C45.192 33.0692 44.9598 33.1087 44.6892 33.1087ZM44.8969 32.3416C45.1611 32.3416 45.387 32.2894 45.5745 32.185C45.7641 32.0806 45.9079 31.9442 46.0059 31.7759C46.1061 31.6055 46.1562 31.4233 46.1562 31.2294V30.5966C46.1221 30.6307 46.056 30.6626 45.958 30.6925C45.8621 30.7202 45.7524 30.7447 45.6288 30.766C45.5052 30.7852 45.3849 30.8033 45.2677 30.8203C45.1505 30.8352 45.0525 30.848 44.9736 30.8587C44.7883 30.8821 44.6189 30.9215 44.4655 30.9769C44.3142 31.0323 44.1927 31.1122 44.1011 31.2166C44.0116 31.3189 43.9669 31.4553 43.9669 31.6257C43.9669 31.8622 44.0542 32.0412 44.229 32.1626C44.4037 32.282 44.6263 32.3416 44.8969 32.3416ZM48.3846 33V28.0909H49.3082V28.8707H49.3594C49.4489 28.6065 49.6065 28.3988 49.8324 28.2475C50.0604 28.0941 50.3182 28.0174 50.6058 28.0174C50.6655 28.0174 50.7358 28.0195 50.8168 28.0238C50.8999 28.0281 50.9648 28.0334 51.0117 28.0398V28.9538C50.9734 28.9432 50.9052 28.9315 50.8072 28.9187C50.7092 28.9038 50.6112 28.8963 50.5131 28.8963C50.2873 28.8963 50.0859 28.9442 49.9091 29.0401C49.7344 29.1339 49.5959 29.2649 49.4936 29.4332C49.3913 29.5994 49.3402 29.7891 49.3402 30.0021V33H48.3846ZM53.5006 33.0959C53.1043 33.0959 52.7506 32.9947 52.4395 32.7923C52.1306 32.5877 51.8877 32.2969 51.7108 31.9197C51.5361 31.5405 51.4488 31.0856 51.4488 30.555C51.4488 30.0245 51.5372 29.5707 51.714 29.1935C51.893 28.8164 52.1381 28.5277 52.4491 28.3274C52.7602 28.1271 53.1128 28.027 53.507 28.027C53.8117 28.027 54.0567 28.0781 54.2421 28.1804C54.4296 28.2805 54.5745 28.3977 54.6768 28.532C54.7812 28.6662 54.8621 28.7844 54.9197 28.8867H54.9772V26.4545H55.9328V33H54.9996V32.2362H54.9197C54.8621 32.3406 54.779 32.4599 54.6704 32.5941C54.5638 32.7283 54.4168 32.8455 54.2293 32.9457C54.0418 33.0458 53.7989 33.0959 53.5006 33.0959ZM53.7116 32.2809C53.9864 32.2809 54.2187 32.2085 54.4083 32.0636C54.6001 31.9165 54.7449 31.7131 54.843 31.4531C54.9431 31.1932 54.9932 30.8906 54.9932 30.5455C54.9932 30.2045 54.9442 29.9062 54.8461 29.6506C54.7481 29.3949 54.6043 29.1957 54.4147 29.0529C54.2251 28.9102 53.9907 28.8388 53.7116 28.8388C53.4239 28.8388 53.1842 28.9134 52.9925 29.0625C52.8007 29.2116 52.6558 29.4151 52.5578 29.6729C52.4619 29.9308 52.414 30.2216 52.414 30.5455C52.414 30.8736 52.463 31.1687 52.561 31.4308C52.659 31.6928 52.8039 31.9006 52.9956 32.054C53.1895 32.2053 53.4282 32.2809 53.7116 32.2809Z" fill="black"/>
<line x1="27" y1="43.5" x2="223" y2="43.5" stroke="#D2D7DC"/>
<rect x="35" y="53" width="157" height="7" rx="3.5" fill="#F2F6F8"/>
<rect x="35" y="66" width="86" height="7" rx="3.5" fill="#F2F6F8"/>
<defs>
<filter id="filter0_d_216_54" x="26" y="16" width="197" height="108" filterUnits="userSpaceOnUse" color-interpolation-filters="sRGB">
<feFlood flood-opacity="0" result="BackgroundImageFix"/>
<feColorMatrix in="SourceAlpha" type="matrix" values="0 0 0 0 0 0 0 0 0 0 0 0 0 0 0 0 0 0 127 0" result="hardAlpha"/>
<feOffset dy="1"/>
<feComposite in2="hardAlpha" operator="out"/>
<feColorMatrix type="matrix" values="0 0 0 0 0 0 0 0 0 0 0 0 0 0 0 0 0 0 0.05 0"/>
<feBlend mode="normal" in2="BackgroundImageFix" result="effect1_dropShadow_216_54"/>
<feBlend mode="normal" in="SourceGraphic" in2="effect1_dropShadow_216_54" result="shape"/>
</filter>
</defs>
</svg>
